<svg width="13" height="8" viewBox="0 0 13 8" fill="none" xmlns="http://www.w3.org/2000/svg">
<path d="M12.8057 1.33334L6.91984 7.18334C6.86394 7.23889 6.80804 7.27778 6.75215 7.3C6.69625 7.32222 6.63477 7.33334 6.56769 7.33334C6.50061 7.33334 6.43913 7.32222 6.38323 7.3C6.32734 7.27778 6.27144 7.23889 6.21554 7.18334L0.329653 1.33334C0.206681 1.21111 0.145195 1.05556 0.145195 0.866669C0.145195 0.67778 0.206681 0.522225 0.329653 0.400002C0.463804 0.266669 0.623109 0.200003 0.807567 0.200003C0.992025 0.200003 1.15133 0.266669 1.28548 0.400002L6.56769 5.65L11.8499 0.400002C11.984 0.266669 12.1434 0.20278 12.3278 0.208335C12.5123 0.21389 12.666 0.27778 12.789 0.400002C12.9231 0.533336 12.9902 0.691668 12.9902 0.875002C12.9902 1.05834 12.9287 1.21111 12.8057 1.33334Z" fill="#0CABDF"/>
</svg>
