<svg width="24" height="24" viewBox="0 0 24 24" fill="none" xmlns="http://www.w3.org/2000/svg">
    <path fill-rule="evenodd" clip-rule="evenodd" d="M12 24C18.6274 24 24 18.6274 24 12C24 5.37258 18.6274 0 12 0C5.37258 0 0 5.37258 0 12C0 18.6274 5.37258 24 12 24ZM12 22C17.5228 22 22 17.5228 22 12C22 6.47715 17.5228 2 12 2C6.47715 2 2 6.47715 2 12C2 17.5228 6.47715 22 12 22Z" fill="white"/>
    <path fill-rule="evenodd" clip-rule="evenodd" d="M10.7433 17.669C10.389 18.0627 9.789 18.1118 9.37534 17.7809L5.37534 14.7809C4.94408 14.4359 4.87416 13.8066 5.21917 13.3753C5.56418 12.944 6.19347 12.8741 6.62473 13.2191L9.88794 15.6297L17.2567 7.33104C17.6262 6.92053 18.2585 6.88726 18.669 7.25671C19.0795 7.62617 19.1128 8.25846 18.7433 8.66897L10.7433 17.669Z" fill="white"/>
</svg>
