<svg width="24" height="24" viewBox="0 0 24 24" fill="none" xmlns="http://www.w3.org/2000/svg">
    <path fill-rule="evenodd" clip-rule="evenodd" d="M12 24C18.6274 24 24 18.6274 24 12C24 5.37258 18.6274 0 12 0C5.37258 0 0 5.37258 0 12C0 18.6274 5.37258 24 12 24ZM12 22C17.5228 22 22 17.5228 22 12C22 6.47715 17.5228 2 12 2C6.47715 2 2 6.47715 2 12C2 17.5228 6.47715 22 12 22Z" fill="white"/>
    <path fill-rule="evenodd" clip-rule="evenodd" d="M6.30644 6.29289C6.69697 5.90237 7.33013 5.90237 7.72066 6.29289L17.7207 16.2929C18.1112 16.6834 18.1112 17.3166 17.7207 17.7071C17.3301 18.0976 16.697 18.0976 16.3064 17.7071L6.30644 7.70711C5.91592 7.31658 5.91592 6.68342 6.30644 6.29289Z" fill="white"/>
    <path fill-rule="evenodd" clip-rule="evenodd" d="M17.7207 6.29289C18.1112 6.68342 18.1112 7.31658 17.7207 7.70711L7.72066 17.7071C7.33013 18.0976 6.69697 18.0976 6.30644 17.7071C5.91592 17.3166 5.91592 16.6834 6.30644 16.2929L16.3064 6.29289C16.697 5.90237 17.3301 5.90237 17.7207 6.29289Z" fill="white"/>
</svg>
