<svg width="19" height="19" viewBox="0 0 19 19" fill="none" xmlns="http://www.w3.org/2000/svg">
<g clip-path="url(#clip0_1_338)">
<path d="M9.5 19C14.7467 19 19 14.7467 19 9.5C19 4.25329 14.7467 0 9.5 0C4.25329 0 0 4.25329 0 9.5C0 14.7467 4.25329 19 9.5 19Z" fill="#F0F0F0"/>
<path d="M1.96383 3.71619C1.2176 4.68708 0.654909 5.80611 0.327271 7.02178H5.26942L1.96383 3.71619Z" fill="#0052B4"/>
<path d="M18.6727 7.02179C18.3451 5.80617 17.7824 4.68713 17.0362 3.71624L13.7307 7.02179H18.6727Z" fill="#0052B4"/>
<path d="M0.327271 11.9783C0.654946 13.1939 1.21764 14.313 1.96383 15.2838L5.26931 11.9783H0.327271Z" fill="#0052B4"/>
<path d="M15.2838 1.96385C14.3129 1.21762 13.1939 0.654931 11.9782 0.327255V5.26937L15.2838 1.96385Z" fill="#0052B4"/>
<path d="M3.71622 17.0361C4.68711 17.7824 5.80614 18.345 7.02177 18.6727V13.7306L3.71622 17.0361Z" fill="#0052B4"/>
<path d="M7.02173 0.327255C5.80611 0.654931 4.68707 1.21762 3.71622 1.96382L7.02173 5.26933V0.327255Z" fill="#0052B4"/>
<path d="M11.9783 18.6727C13.1939 18.345 14.3129 17.7824 15.2838 17.0362L11.9783 13.7306V18.6727Z" fill="#0052B4"/>
<path d="M13.7307 11.9783L17.0362 15.2838C17.7824 14.313 18.3451 13.1939 18.6727 11.9783H13.7307Z" fill="#0052B4"/>
<path d="M18.9196 8.26088H10.7392H10.7392V0.080416C10.3335 0.0276094 9.91997 0 9.5 0C9.07996 0 8.66649 0.0276094 8.26088 0.080416V8.26081V8.26084H0.080416C0.0276094 8.66649 0 9.08003 0 9.5C0 9.92004 0.0276094 10.3335 0.080416 10.7391H8.26081H8.26084V18.9196C8.66649 18.9724 9.07996 19 9.5 19C9.91997 19 10.3335 18.9724 10.7391 18.9196V10.7392V10.7392H18.9196C18.9724 10.3335 19 9.92004 19 9.5C19 9.08003 18.9724 8.66649 18.9196 8.26088Z" fill="#D80027"/>
<path d="M11.9783 11.9783L16.2175 16.2175C16.4125 16.0226 16.5985 15.8189 16.7759 15.6077L13.1465 11.9783H11.9783V11.9783Z" fill="#D80027"/>
<path d="M7.02173 11.9783H7.02166L2.78247 16.2175C2.97737 16.4125 3.18114 16.5985 3.39236 16.7759L7.02173 13.1465V11.9783Z" fill="#D80027"/>
<path d="M7.02174 7.0218V7.02172L2.78251 2.78246C2.58754 2.97736 2.40155 3.18113 2.22409 3.39235L5.8535 7.02176H7.02174V7.0218Z" fill="#D80027"/>
<path d="M11.9783 7.0218L16.2175 2.7825C16.0226 2.58753 15.8189 2.40154 15.6076 2.22412L11.9783 5.85353V7.0218Z" fill="#D80027"/>
</g>
<defs>
<clipPath id="clip0_1_338">
<rect width="19" height="19" fill="white"/>
</clipPath>
</defs>
</svg>
